# xmcd CD database file
#
# Track frame offsets:
#	182
#	19615
#	38737
#	64757
#	80207
#	100687
#	122357
#	142185
#	163530
#	179585
#	200297
#	221515
#
# Disc length: 3252 seconds
#
# Revision: 10
# Processed by: cddbd v1.5.1PL0 Copyright (c) Steve Scherf et al.
# Submitted via: CDex 1.50
#
DISCID=a30cb20c
DTITLE=周蕙 - 周蕙精选2- 好想好好爱你
DYEAR=2003
DGENRE=Blues
TTITLE0=好想好好爱你
TTITLE1=Angel's Face
TTITLE2=替身
TTITLE3=太忙
TTITLE4=事到如今
TTITLE5=话题
TTITLE6=爱过不伤心
TTITLE7=不哭
TTITLE8=换季
TTITLE9=没有你
TTITLE10=相遇太早
TTITLE11=温度
EXTD=YEAR: 2003
EXTT0=
EXTT1=
EXTT2=
EXTT3=
EXTT4=
EXTT5=
EXTT6=
EXTT7=
EXTT8=
EXTT9=
EXTT10=
EXTT11=
PLAYORDER=
